<svg width="256" height="256" viewBox="0 0 256 256" fill="none" xmlns="http://www.w3.org/2000/svg">
<rect width="256" height="256" fill="#050605"/>
<path d="M90.8494 137.048V134.072L99.3934 123.32L99.5134 123.752L98.6974 122.696L99.2494 123.176H91.1854L82 120L104.937 119.528V122.504L96.3694 133.256L96.2494 132.8L97.0654 133.88L96.5134 133.4H104.841V137.048H90.8494Z" fill="#7BFF88"/>
<path d="M107.134 137.048V119.528H111.454V137.048H107.134ZM110.974 137.048V133.4H118.366V137.048H110.974ZM110.974 129.968V126.32H117.862V129.968H110.974ZM110.974 123.176V119.528H118.222V123.176H110.974Z" fill="#7BFF88"/>
<path d="M121.097 137.048V119.528H128.417L134.249 133.496H135.089L134.609 133.928V119.528H138.785V137.048H131.417L125.585 123.08H124.745L125.225 122.648V137.048H121.097Z" fill="#7BFF88"/>
<path d="M142.092 137.048V119.528H146.556V137.048H142.092ZM146.076 137.048V133.16H153.18L156.417 137.048H146.076Z" fill="#7BFF88"/>
<path d="M163.545 137.528C161.945 137.528 160.553 137.256 159.369 136.712C158.185 136.152 157.201 135.424 156.417 134.528C155.633 133.616 155.049 132.632 154.665 131.576C154.281 130.52 154.089 129.496 154.089 128.504V127.976C154.089 126.872 154.289 125.792 154.689 124.736C155.089 123.664 155.689 122.696 156.489 121.832C157.289 120.968 158.273 120.28 159.441 119.768C160.625 119.256 161.993 119 163.545 119C165.081 119 166.433 119.256 167.601 119.768C168.785 120.28 169.777 120.968 170.577 121.832C171.377 122.696 171.977 123.664 172.377 124.736C172.793 125.792 173.001 126.872 173.001 127.976V128.504C173.001 129.496 172.801 130.52 172.401 131.576C172.017 132.632 171.433 133.616 170.649 134.528C169.865 135.424 168.881 136.152 167.697 136.712C166.513 137.256 165.129 137.528 163.545 137.528ZM163.545 133.352C164.313 133.352 165.001 133.224 165.609 132.968C166.217 132.712 166.737 132.352 167.169 131.888C167.601 131.424 167.929 130.888 168.153 130.28C168.377 129.656 168.489 128.984 168.489 128.264C168.489 127.496 168.369 126.8 168.129 126.176C167.905 125.552 167.577 125.016 167.145 124.568C166.713 124.12 166.193 123.776 165.585 123.536C164.977 123.296 164.297 123.176 163.545 123.176C162.777 123.176 162.089 123.296 161.481 123.536C160.873 123.776 160.353 124.12 159.921 124.568C159.489 125.016 159.161 125.552 158.937 126.176C158.713 126.8 158.601 127.496 158.601 128.264C158.601 128.984 158.713 129.656 158.937 130.28C159.161 130.888 159.489 131.424 159.921 131.888C160.353 132.352 160.873 132.712 161.481 132.968C162.089 133.224 162.777 133.352 163.545 133.352Z" fill="#7BFF88"/>
</svg>
